<svg enable-background="new 0 0 661.398 423.865" height="424" viewBox="0 0 661.398 423.865" width="662" xmlns="http://www.w3.org/2000/svg"><g fill="#ffa9d8"><path d="m66.52 10.437c6.746 0 43.209 27.052 44.901 34.601s-31.654 123.817-31.654 123.817l59.589 2.861s-4.497-88.034 0-93.335 56.205-24.907 58.529-18.52 5.646 314.604 0 319.601-46.849-3.786-50.725-11.349-7.154-141.737-7.154-141.737-132.636 3.166-137.259-5.332 57.027-210.607 63.773-210.607z"/><path d="m190.426 383.422c-5.138 0-11.125-.921-15.312-1.71-2.696-.508-26.447-5.176-30.18-12.459-3.809-7.43-6.685-113.056-7.367-140.323-8.355.174-36.368.692-64.478.467-68.946-.553-71.283-4.85-72.539-7.159-.755-1.388-2.019-3.712 6.008-35.08 4.51-17.626 11.215-41.392 18.879-66.921 13.582-45.238 31.069-98.755 37.369-109.354.909-1.53 1.989-2.946 3.713-2.946 7.71 0 45.292 27.413 47.34 36.554 1.666 7.433-23.687 97.061-30.822 122.018l53.685 2.577c-.316-6.622-1.113-24.191-1.554-41.988-1.148-46.295 1.081-48.923 2.279-50.334 4.483-5.285 48.072-22.466 59.03-20.502 2.437.437 3.386 1.733 3.754 2.745 1.514 4.161 2.796 96.271 3.139 161.163.16 30.206.241 73.494-.28 108.182-.759 50.511-2.243 51.824-3.552 52.982-1.748 1.549-5.181 2.088-9.112 2.088zm-50.42-159.546c1.352 0 2.465 1.08 2.498 2.439 1.253 51.286 4.23 134.828 6.887 140.672 1.308 2.552 12.333 7.112 26.649 9.812 12.11 2.283 18.274 1.717 19.878.98 1.981-7.115 2.939-69.11 2.446-159.279-.445-81.267-1.831-149.397-2.781-157.343-2.338-.5-11.055.844-27.552 6.724-15 5.347-25.192 10.459-26.708 12.05-2.45 4.844-1.561 50.741.529 91.658.036.705-.228 1.393-.726 1.893-.499.5-1.185.767-1.89.732l-59.589-2.861c-.763-.037-1.467-.42-1.912-1.041s-.582-1.411-.371-2.146c12.669-44.174 32.454-116.527 31.609-122.624-.491-2.185-7.539-9.49-19.617-18.643-11.26-8.533-19.245-12.982-22.064-13.817-3.754 5.582-16.894 42.019-35.06 101.95-18.798 62.013-27.829 99.224-27.237 104.75 5.317 3.451 53.816 6.033 134.952 4.095.019-.001.039-.001.059-.001z"/><path d="m510.101 55.073c3.193-4.763 43.076-15.875 48.181-10.034 5.106 5.841-20.592 130.484-20.592 130.484l62.604-3.346s-6.105-164.561-.444-168.83c5.662-4.268 46.266 8.724 49.588 14.182s12.212 341.14 8.621 346.635-42.783 23.308-49.657 23.308-5.95-162.271-5.95-162.271-121.268 17.875-126.844 11.149c-5.577-6.727 31.299-176.515 34.493-181.277z"/><path d="m608.402 389.972c-.807 0-1.585-.335-2.19-.944-1.533-1.542-4.724-4.75-5.9-85.179-.484-33.095-.409-65.986-.372-75.757-8.304 1.197-33.317 4.74-58.528 7.688-63.377 7.415-66.207 4-67.729 2.165-1.338-1.614-4.472-5.395 13.433-93.468 7.108-34.966 18.644-87.419 20.909-90.796 3.435-5.124 29.093-11.95 40.937-12.708 5.872-.375 9.432.394 11.203 2.42 1.49 1.705 3.983 4.558-7.804 69.524-4.663 25.698-9.794 51.19-11.573 59.937l56.92-3.043c-.338-9.489-1.561-44.947-2.257-80.4-1.662-84.624 1.081-86.692 2.896-88.061 1.406-1.06 4.44-2.245 14.529-.315 11.752 2.248 35.371 9.724 38.699 15.193.606.996 1.522 2.5 3.616 56.895 1.221 31.709 2.517 73.489 3.65 117.644 1.155 44.987 1.99 86.771 2.354 117.654.642 54.533-.332 56.022-1.042 57.109-2.716 4.156-18.136 11.606-24.64 14.616-9.794 4.533-22.77 9.826-27.111 9.826zm-5.95-167.272c.598 0 1.181.215 1.639.612.551.478.865 1.173.861 1.902-.323 56.787.651 148.3 4.572 159.642 8.744-1.508 42.574-17.37 46.28-21.843 2.774-14.204-5.111-329.544-8.614-344.331-1.402-1.604-9.627-5.644-22.281-9.466-13.129-3.966-21.231-4.711-23.276-4-3.32 9.211-1.072 106.707 1.16 166.866.051 1.364-1.002 2.516-2.365 2.589l-62.604 3.347c-.774.039-1.523-.278-2.029-.866-.505-.587-.71-1.376-.553-2.135 9.437-45.772 23.382-120.59 21.033-128.425-.379-.233-1.743-.825-5.728-.692-13.489.446-35.914 7.849-38.34 10.534-1.707 3.797-11.182 44.798-20.006 88.125-12.177 59.795-15.45 85.704-14.57 90.146 7.409 3.045 69.138-3.826 124.456-11.979.122-.017.244-.026.365-.026z"/><path d="m422.258 81.421c-5.728-5.495-157.042-24.005-163.88-18.165s-10.162 335.934-6.838 343.369 204.445 17.654 210.312 13.959-33.866-333.668-39.594-339.163zm-11.04 281.141c-6.876 9.084-118.305 13.886-121.96 7.645s-.154-236.855 5.372-241.407c5.525-4.552 93.692 12.42 98.849 18.165 5.156 5.745 24.615 206.513 17.739 215.597z"/><path d="m448.102 423.868c-4.415 0-10.18-.078-17.732-.27-18.015-.457-41.316-1.452-65.609-2.801-45.535-2.53-98.698-6.598-111.343-10.429-1.768-.536-3.496-1.237-4.161-2.723-2.546-5.695-1.26-130.181-.609-173.341.686-45.431 1.684-86.653 2.811-116.075 2.073-54.123 3.935-55.713 5.295-56.875 1.19-1.016 3.181-2.716 29.473-.991 14.42.946 33.88 2.808 54.796 5.242 7.963.926 77.94 9.191 82.966 14.012 1.034.992 2.596 2.491 9.696 52.852 4.13 29.296 9.146 68.314 14.123 109.866 8.726 72.855 18.412 162.89 16.992 176.86-.131 1.286-.374 2.723-1.615 3.504-.742.467-1.858 1.169-15.083 1.169zm-194.324-18.64c5.08 2.368 38.44 6.341 103.323 10.125 54.236 3.164 95.331 4.133 102.774 3.156 1.08-9.972-5.406-77.71-16.127-167.995-10.388-87.474-20.545-160.125-23.372-167.336-4.351-2.114-35.35-7.412-79.666-12.575-47.178-5.497-75.742-6.886-80.505-5.464-2.572 7.777-5.14 74.167-6.579 170.656-1.241 83.203-1.159 160.751.152 169.433zm207.016 13.102s0 .001 0 0zm-40.139-334.998h.01zm-102.816 292.198c-6.056 0-11.506-.128-16.006-.395-12.04-.712-13.839-2.14-14.732-3.666-3.206-5.475-1.324-110.67-1.099-122.647.591-31.427 1.46-60.327 2.447-81.378 1.794-38.27 3.345-39.548 4.592-40.575 1.343-1.105 4.024-2.144 18.924-.444 8.771 1 20.381 2.825 32.69 5.138 7.705 1.447 46.361 8.913 50.685 13.731.837.932 2.394 2.667 6.535 36.197 2.44 19.759 5.166 45.928 7.477 71.797 2.49 27.87 4.343 53.598 5.219 72.445 1.599 34.429-.398 37.068-1.358 38.336-1.129 1.491-4.564 6.03-47.168 9.438-16.366 1.311-33.956 2.023-48.206 2.023zm-26.425-6.806c4.149 1.801 28.283 2.551 59.332.81 34.883-1.957 56.086-5.801 58.449-8.445 1.943-3.901 1.278-38.9-4.776-106.819-5.174-58.046-10.801-101.168-12.891-105.711-2.5-1.968-20.629-6.947-47.115-11.952-26.732-5.051-44.21-6.754-47.953-5.887-1.708 5.733-4.091 44.636-5.476 119.172-1.113 59.782-.911 112.082.43 118.832zm119.804-6.162h.01z"/></g></svg>