<svg enable-background="new 0 0 337.9 236" height="236" viewBox="0 0 337.9 236" width="338" xmlns="http://www.w3.org/2000/svg"><path d="m71.1 0h112.7v101.2h-112.7z" fill="#e0af73"/><path d="m73.8 2.4h107.3v96.3h-107.3z" fill="#e7b674"/><path d="m71.1 8.9h16.5v8.8h-16.5z" fill="#e8d7c8"/><path d="m144.9 7.3h28.4v22.8h-28.4z" fill="#e8d7c8"/><path d="m147.4 20.4h18v1.1h-18z" fill="#997b5e"/><path d="m147.4 23.3h19.9v1.1h-19.9z" fill="#997b5e"/><path d="m147.4 10.9h3v3h-3z" fill="#997b5e"/><path d="m119.5 0h15.9v31.8h-15.9z" fill="#d39f66"/><path d="m5.8 46.8h58.3v54.4h-58.3z" fill="#e0af73"/><path d="m7.3 48.1h55.5v51.8h-55.5z" fill="#e7b674"/><path d="m5.8 51.4h8.5v4.6h-8.5z" fill="#e8d7c8"/><path d="m42.8 76.8h11.8v14.7h-11.8z" fill="#e8d7c8" transform="matrix(.3854 -.9227 .9227 .3854 -47.7687 96.638)"/><g fill="#997b5e"><path d="m48.2 78.1h.5v11.3h-.5z" transform="matrix(.3854 -.9227 .9227 .3854 -47.4978 96.1606)"/><path d="m46.7 80.1h.5v9.3h-.5z" transform="matrix(.3854 -.9227 .9227 .3854 -49.3442 95.3934)"/><path d="m46.5 81.1h.5v10.3h-.5z" transform="matrix(.3854 -.9227 .9227 .3854 -50.8037 96.1493)"/><path d="m44.3 78.4h1.6v1.6h-1.6z" transform="matrix(.3854 -.9227 .9227 .3854 -45.3736 90.2765)"/><path d="m46.4 79.3h1.6v1.6h-1.6z" transform="matrix(.3854 -.9227 .9227 .3854 -44.9125 92.7582)"/></g><path d="m30.9 46.8h8.2v16.4h-8.2z" fill="#d39f66"/><path d="m128.8 101.1h112.9v134.9h-112.9z" fill="#e0af73"/><path d="m132 103.5h107v130.1h-107z" fill="#e7b674"/><path d="m225.2 109.9h16.5v8.8h-16.5z" fill="#e8d7c8"/><path d="m140.6 110h28.4v22.8h-28.4z" fill="#e8d7c8"/><path d="m143.1 120.1h21.8v1.1h-21.8z" fill="#997b5e"/><path d="m143.1 123h18v1.1h-18z" fill="#997b5e"/><path d="m143.1 125.9h19.9v1.1h-19.9z" fill="#997b5e"/><path d="m143.1 113.5h3v3h-3z" fill="#997b5e"/><path d="m147.5 113.5h3v3h-3z" fill="#997b5e"/><path d="m177.6 101h15.8v31.7h-15.8z" fill="#d39f66"/><path d="m222.2 218h11.8v11.8h-11.8z" fill="#d39f66"/><path d="m205.7 16.3h94.6v84.9h-94.6z" fill="#e0af73"/><path d="m207.9 18.3h90v80.8h-90z" fill="#e7b674"/><path d="m205.7 23.7h13.8v7.4h-13.8z" fill="#e8d7c8"/><path d="m212.3 41.7h23.9v19.2h-23.9z" fill="#e8d7c8" transform="matrix(.9503 -.3114 .3114 .9503 -4.829 72.385)"/><path d="m214.3 50.5h18.4v.9h-18.4z" fill="#997b5e" transform="matrix(.9503 -.3114 .3114 .9503 -4.7501 72.1345)"/><path d="m215.1 53.3h15.1v.9h-15.1z" fill="#997b5e" transform="matrix(.9503 -.3114 .3114 .9503 -5.6712 72.0089)"/><path d="m213.2 47.6h2.5v2.5h-2.5z" fill="#997b5e" transform="matrix(.9503 -.3114 .3114 .9503 -4.5554 69.205)"/><path d="m216.7 46.5h2.5v2.5h-2.5z" fill="#997b5e" transform="matrix(.9503 -.3114 .3114 .9503 -4.0392 70.2459)"/><path d="m246.3 16.3h13.3v26.6h-13.3z" fill="#d39f66"/><path d="m241.4 101.1h83.5v80h-83.5z" fill="#e0af73"/><path d="m243.4 102.9h79.5v76.3h-79.5z" fill="#e7b674"/><path d="m312.7 107.7h12.2v6.5h-12.2z" fill="#e8d7c8"/><path d="m294.9 137.7h16.9v21.1h-16.9z" fill="#e8d7c8" transform="matrix(.449 -.8935 .8935 .449 34.6653 352.7843)"/><path d="m302.7 139.4h.8v16.2h-.8z" fill="#997b5e" transform="matrix(.449 -.8935 .8935 .449 35.1846 352.155)"/><path d="m300.5 142.2h.8v13.3h-.8z" fill="#997b5e" transform="matrix(.449 -.8935 .8935 .449 32.7809 350.8508)"/><path d="m300.1 143.7h.8v14.8h-.8z" fill="#997b5e" transform="matrix(.449 -.8935 .8935 .449 30.5364 351.776)"/><path d="m297.6 139.6h2.2v2.2h-2.2z" fill="#997b5e" transform="matrix(.449 -.8935 .8935 .449 38.8404 344.4528)"/><path d="m300.5 141h2.2v2.2h-2.2z" fill="#997b5e" transform="matrix(.449 -.8935 .8935 .449 39.208 347.8448)"/><path d="m277.2 101.1h11.8v23.5h-11.8z" fill="#d39f66"/><path d="m254.4 181.1h83.5v54.9h-83.5z" fill="#e0af73"/><path d="m255.9 182.5h80.4v52.1h-80.4z" fill="#e7b674"/><path d="m328.4 186.2h9.5v5.1h-9.5z" fill="#e8d7c8"/><path d="m270.8 206.5h16.3v13.1h-16.3z" fill="#e8d7c8"/><path d="m273 212.3h12.6v.6h-12.6z" fill="#997b5e"/><path d="m275.3 214h10.3v.6h-10.3z" fill="#997b5e"/><path d="m274.2 215.6h11.4v.6h-11.4z" fill="#997b5e"/><path d="m283.9 208.5h1.7v1.7h-1.7z" fill="#997b5e"/><path d="m281.4 208.5h1.7v1.7h-1.7z" fill="#997b5e"/><path d="m291.7 181.1h9.1v18.2h-9.1z" fill="#d39f66"/><path d="m0 101.1h129.2v134.9h-129.2z" fill="#e0af73"/><path d="m3.1 103.9h123v129.3h-123z" fill="#e7b674"/><path d="m0 111.3h18.9v10.1h-18.9z" fill="#e8d7c8"/><path d="m79 147.4h38.6v31h-38.6z" fill="#e8d7c8"/><path d="m82.4 161.2h29.7v1.4h-29.7z" fill="#997b5e"/><path d="m82.4 165.2h24.4v1.4h-24.4z" fill="#997b5e"/><path d="m82.4 152.3h4.1v4.1h-4.1z" fill="#997b5e"/><path d="m88.4 152.3h4.1v4.1h-4.1z" fill="#997b5e"/><path d="m71.2 162.1h38.6v31h-38.6z" fill="#e8d7c8" transform="matrix(.9112 -.4119 .4119 .9112 -65.1223 53.0311)"/><path d="m74.2 176.4h29.7v1.4h-29.7z" fill="#997b5e" transform="matrix(.9112 -.4119 .4119 .9112 -65.059 52.3879)"/><path d="m78.1 186.7h14.8v1.4h-14.8z" fill="#997b5e" transform="matrix(.9112 -.4119 .4119 .9112 -69.617 51.8525)"/><path d="m76.1 181.1h24.4v1.4h-24.4z" fill="#997b5e" transform="matrix(.9112 -.4119 .4119 .9112 -67.056 52.4987)"/><path d="m72.2 173.5h4.1v4.1h-4.1z" fill="#997b5e" transform="matrix(.9112 -.4119 .4119 .9112 -65.7274 46.1724)"/><path d="m55.5 101.1h18.2v36.4h-18.2z" fill="#d39f66"/><path d="m92.5 216.6h11.8v11.8h-11.8z" fill="#d39f66"/><path d="m109.7 216.6h11.8v11.8h-11.8z" fill="#d39f66"/></svg>