<svg height="600" viewBox="0 0 800 600" width="800" xmlns="http://www.w3.org/2000/svg" xmlns:xlink="http://www.w3.org/1999/xlink"><radialGradient id="a" cx="676.743" cy="-664.287" gradientTransform="matrix(1.339 0 0 1.02 -506.159 1033.807)" gradientUnits="userSpaceOnUse" r="264.36"><stop offset="0" stop-color="#f2f2f2"/><stop offset=".672" stop-color="#f4f4f4"/><stop offset=".921" stop-color="#fbfbfb"/><stop offset="1" stop-color="#fff"/></radialGradient><radialGradient id="b" cx="398.5" cy="-49.742" gradientTransform="matrix(1 0 0 1.133 0 494.247)" gradientUnits="userSpaceOnUse" r="333.458"><stop offset="0" stop-color="#fff" stop-opacity="0"/><stop offset="1" stop-color="#fff"/></radialGradient><path d="m0 0h800v600h-800z" fill="#fff"/><path d="m0 0h800v600h-800z" fill="#fff"/><path d="m0 84h800v495h-800z" fill="url(#a)"/><path d="m0 433.1h800v166.9h-800z" fill="#fff"/><path d="m126.5 98h275.9v330.2h-275.9z" fill="#d3d3d3"/><g fill="#e0e0e0"><path d="m408.5 433.1h-288v-340.1h288zm-271-13.9h254v-312.3h-254z"/><path d="m126.5 201h275.9v13.9h-275.9z"/><path d="m126.5 309h275.9v13.9h-275.9z"/></g><path d="m287.2 135.4h89.5v65.6h-89.5z" fill="#f5f5f5"/><path d="m289.4 137h85.1v62.4h-85.1z" fill="#f5f5f5"/><path d="m287.2 141.2h13.1v5.7h-13.1z" fill="#eaeaea"/><path d="m345 141.2h22.6v14.8h-22.6z" fill="#fafafa" opacity=".64"/><path d="m345 186.3h9.2v7.5h-9.2z" fill="#eaeaea"/><path d="m358.4 186.3h9.2v7.5h-9.2z" fill="#eaeaea"/><path d="m325.6 135.4h12.6v20.6h-12.6z" fill="#eae9e8"/><path d="m160 353.6h89.5v65.6h-89.5z" fill="#f5f5f5"/><path d="m162.1 355.2h85.1v62.4h-85.1z" fill="#f5f5f5"/><path d="m160 359.4h13.1v5.7h-13.1z" fill="#eaeaea"/><path d="m217.8 359.4h22.6v14.8h-22.6z" fill="#fafafa" opacity=".64"/><path d="m231.2 404.5h9.2v7.5h-9.2z" fill="#eaeaea"/><path d="m198.4 353.6h12.6v20.6h-12.6z" fill="#eae9e8"/><path d="m256.9 332.2h118.7v87h-118.7z" fill="#f5f5f5"/><path d="m259.8 334.3h113v82.8h-113z" fill="#f5f5f5"/><path d="m256.9 339.9h17.4v7.6h-17.4z" fill="#eaeaea"/><path d="m333.6 339.9h30v19.6h-30z" fill="#fafafa" opacity=".64"/><path d="m333.6 399.6h12.2v10h-12.2z" fill="#eaeaea"/><path d="m351.4 399.6h12.2v10h-12.2z" fill="#eaeaea"/><path d="m307.9 332.2h16.7v27.3h-16.7z" fill="#eae9e8"/><path d="m147.1 243.4h155.4v65.6h-155.4z" fill="#f5f5f5"/><path d="m149.3 245h151.1v62.4h-151.1z" fill="#f5f5f5"/><path d="m147.1 249.2h13.1v5.7h-13.1z" fill="#eaeaea"/><path d="m270.9 249.2h22.6v14.8h-22.6z" fill="#fafafa" opacity=".64"/><path d="m218.5 243.4h12.6v20.6h-12.6z" fill="#eae9e8"/><path d="m172.1 125.9h102.5v75.1h-102.5z" fill="#f5f5f5"/><path d="m174.6 127.7h97.5v71.5h-97.5z" fill="#f5f5f5"/><path d="m172.1 132.5h15v6.6h-15z" fill="#eaeaea"/><path d="m238.4 184.1h10.5v8.6h-10.5z" fill="#eaeaea"/><path d="m216.2 125.9h14.4v23.6h-14.4z" fill="#eae9e8"/><path d="m311.5 226.5h72.1v82.5h-72.1z" fill="#f5f5f5"/><path d="m313.3 227.8h68.6v79.9h-68.6z" fill="#f5f5f5"/><path d="m311.5 231.2h10.5v4.6h-10.5z" fill="#eaeaea"/><path d="m358.1 231.2h18.2v11.9h-18.2z" fill="#fafafa" opacity=".64"/><path d="m358.1 297.1h7.4v6.1h-7.4z" fill="#eaeaea"/><path d="m342.5 226.5h10.1v16.6h-10.1z" fill="#eae9e8"/><path d="m397.5 98h275.9v330.2h-275.9z" fill="#d3d3d3"/><path d="m679.5 433.1h-288v-340.1h288zm-271-13.9h254v-312.3h-254z" fill="#e0e0e0"/><path d="m397.5 201h275.9v13.9h-275.9z" fill="#e0e0e0"/><path d="m397.5 309h275.9v13.9h-275.9z" fill="#e0e0e0"/><path d="m408.3 342.1h182.8v77.1h-182.8z" fill="#f5f5f5"/><path d="m410.8 344h177.7v73.4h-177.7z" fill="#f5f5f5"/><path d="m408.3 348.9h15.4v6.7h-15.4z" fill="#eaeaea"/><path d="m553.8 348.9h26.5v17.4h-26.5z" fill="#fafafa" opacity=".64"/><path d="m553.8 401.9h10.8v8.8h-10.8z" fill="#eaeaea"/><path d="m492.2 342.1h14.8v24.2h-14.8z" fill="#eae9e8"/><path d="m517.4 233.9h102.5v75.1h-102.5z" fill="#f5f5f5"/><path d="m519.9 235.7h97.5v71.5h-97.5z" fill="#f5f5f5"/><path d="m517.4 240.5h15v6.6h-15z" fill="#eaeaea"/><path d="m599 292.1h10.5v8.6h-10.5z" fill="#eaeaea"/><path d="m561.4 233.9h14.4v23.6h-14.4z" fill="#eae9e8"/><path d="m456.7 118.9h112v82.1h-112z" fill="#f5f5f5"/><path d="m459.4 120.9h106.6v78.1h-106.6z" fill="#f5f5f5"/><path d="m456.7 126.2h16.4v7.2h-16.4z" fill="#eaeaea"/><path d="m529 182.5h11.5v9.4h-11.5z" fill="#eaeaea"/><path d="m504.8 118.9h15.8v25.8h-15.8z" fill="#eae9e8"/><path d="m428.6 266.5h60.7v42.5h-60.7z" fill="#f5f5f5"/><path d="m430.1 267.5h57.8v40.4h-57.8z" fill="#f5f5f5"/><path d="m428.6 270.4h8.9v3.9h-8.9z" fill="#eaeaea"/><path d="m467.9 299h6.2v5.1h-6.2z" fill="#eaeaea"/><path d="m454.7 266.5h8.5v14h-8.5z" fill="#eae9e8"/><path d="m417.1 224.7h60.7v42.5h-60.7z" fill="#f5f5f5"/><path d="m418.6 225.8h57.8v40.4h-57.8z" fill="#f5f5f5"/><path d="m417.1 228.6h8.9v3.9h-8.9z" fill="#eaeaea"/><path d="m456.3 257.2h6.2v5.1h-6.2z" fill="#eaeaea"/><path d="m465.4 257.2h6.2v5.1h-6.2z" fill="#eaeaea"/><path d="m443.2 224.7h8.5v14h-8.5z" fill="#eae9e8"/><path d="m0 0h800v466h-800z" fill="url(#b)"/></svg>